# xmcd CD database file
#
# Track frame offsets:
#	182
#	34630
#	52900
#	84682
#	110585
#	134027
#	170817
#	212460
#	220237
#	233967
#
# Disc length: 3548 seconds
#
# Revision: 0
# Processed by: cddbd v1.5.1PL0 Copyright (c) Steve Scherf et al.
# Submitted via: CDex 1.51
#
DISCID=900dda0a
DTITLE=Jacques Parmentier - Méloé
DYEAR=1900
DGENRE=New Age
TTITLE0=Evanescence
TTITLE1=Gwendoline
TTITLE2=Air Nocturne
TTITLE3=Idylle
TTITLE4=Samourai Tango
TTITLE5=Lac Interieur
TTITLE6=L'Oiseau
TTITLE7=Laser
TTITLE8=L'Etre De Mon Moulin
TTITLE9=Méloé
EXTD=
EXTT0=
EXTT1=
EXTT2=
EXTT3=
EXTT4=
EXTT5=
EXTT6=
EXTT7=
EXTT8=
EXTT9=
PLAYORDER=
